<svg xmlns="http://www.w3.org/2000/svg" version="1.1" xmlns:xlink="http://www.w3.org/1999/xlink" xmlns:svgjs="http://svgjs.com/svgjs" width="225.000000pt" height="225.000000pt"><svg version="1.0" xmlns="http://www.w3.org/2000/svg" width="225.000000pt" height="225.000000pt" viewBox="0 0 225.000000 225.000000" preserveAspectRatio="xMidYMid meet">

<g transform="translate(0.000000,225.000000) scale(0.100000,-0.100000)" fill="#000000" stroke="none">
<path d="M975 2239 c-96 -13 -232 -52 -322 -94 -207 -96 -405 -282 -516 -485
-205 -373 -172 -857 81 -1196 364 -489 1024 -606 1532 -272 101 66 234 201
305 308 143 215 195 403 195 708 l0 132 -560 0 -560 0 0 -215 0 -215 331 -2
330 -3 -46 -94 c-68 -134 -173 -240 -305 -305 -111 -54 -201 -76 -321 -76
-311 0 -591 220 -669 526 -94 367 135 749 506 844 93 24 220 26 319 5 70 -15
192 -67 245 -105 l29 -21 45 58 c25 32 83 108 130 168 l85 110 -27 22 c-90 73
-284 158 -427 188 -98 20 -286 27 -380 14z"></path>
</g>
</svg><style>@media (prefers-color-scheme: light) { :root { filter: none; } }
</style></svg>